<svg xmlns="http://www.w3.org/2000/svg" version="1.1" xmlns:xlink="http://www.w3.org/1999/xlink" xmlns:svgjs="http://svgjs.com/svgjs" id="BgenPttrnSvgRootPreview" width="100%" height="100%"><defs><pattern x="0" y="0" width="1" height="1" patternUnits="userSpaceOnUse" id="BgenPttrnLayer1"><g id="PatternRootContent1"><g id="BgenPttrnLayer1background"><rect width="1" height="1" id="BgenPttrnBackground1" class="color_1 fill_color_1" fill="none"></rect></g></g></pattern><pattern x="0" y="0" width="58" height="102" patternUnits="userSpaceOnUse" id="BgenPttrnLayer2" patternTransform="matrix(0.88,0,0,0.88,0,0)"><g id="PatternRootContent2"><g id="BgenPttrnLayer2Element3"><use xlink:href="#BgenPttrnElement3" x="20.822513580322266" y="-57.81134796142578" transform="translate(58, -25.5) scale(1) translate(-58, 25.5) rotate(90, 58, -25.5)"></use><use xlink:href="#BgenPttrnElement3" x="-37.177486419677734" y="-57.81134796142578" transform="translate(0, -25.5) scale(1) translate(0, 25.5) rotate(90, 0, -25.5)"></use><use xlink:href="#BgenPttrnElement3" x="-8.177486419677734" y="-6.811347961425781" transform="translate(29, 25.5) scale(1) translate(-29, -25.5) rotate(90, 29, 25.5)"></use><use xlink:href="#BgenPttrnElement3" x="-66.17748641967773" y="-6.811347961425781" transform="translate(-29, 25.5) scale(1) translate(29, -25.5) rotate(90, -29, 25.5)"></use><use xlink:href="#BgenPttrnElement3" x="49.822513580322266" y="-6.811347961425781" transform="translate(87, 25.5) scale(1) translate(-87, -25.5) rotate(90, 87, 25.5)"></use><use xlink:href="#BgenPttrnElement3" x="20.822513580322266" y="44.18865203857422" transform="translate(58, 76.5) scale(1) translate(-58, -76.5) rotate(90, 58, 76.5)"></use><use xlink:href="#BgenPttrnElement3" x="-37.177486419677734" y="44.18865203857422" transform="translate(0, 76.5) scale(1) translate(0, -76.5) rotate(90, 0, 76.5)"></use><use xlink:href="#BgenPttrnElement3" x="-8.177486419677734" y="95.18865203857422" transform="translate(29, 127.5) scale(1) translate(-29, -127.5) rotate(90, 29, 127.5)"></use><use xlink:href="#BgenPttrnElement3" x="-8.177486419677734" y="95.18865203857422" transform="translate(29, 127.5) scale(1) translate(-29, -127.5) rotate(90, 29, 127.5)"></use></g></g></pattern><symbol id="BgenPttrnElement3"><g class="color_4 fill_color_4" fill="rgba(255, 255, 255, 0.5)"><path d="M38.738,45.465389251708984L38.368,45.26538848876953C39.148,45.525,39.998,45.375,40.738,45.41539001464844L40.758,45.34539031982422C42.608,45.275,44.578,43.675,45.238,42.25539016723633C45.808,41.025,45.908,39.135,45.478,38.26538848876953C45.588,38.385,45.628,38.865,45.708,38.715389251708984C45.578,37.345,45.238,37.655,44.968,36.60538864135742C44.688,36.315,45.188,37.465,44.808,36.83538818359375C44.678,36.275,44.928,36.015,44.068,35.18539047241211C43.948,35.255,44.418,35.715,43.948,35.33538818359375C44.038,34.545,42.148,32.855,41.528,32.49538803100586L41.488,32.68539047241211C40.718,32.375,40.228,31.965,39.768,31.91539192199707C38.628,31.835,36.558,31.465,35.918,31.995389938354492L35.388,31.935392379760742L34.938,32.16539001464844L34.928,32.04539108276367C33.098,32.625,34.888,32.665,32.988,33.43539047241211C33.028,33.325,33.068,33.205,33.308,33.04539108276367C33.118,33.025,32.618,33.285,32.228,33.58538818359375L32.088,33.465389251708984C31.778,33.625,31.708,33.785,31.598,33.895389556884766C31.948,33.265,30.468,34.465,30.278,34.59539031982422L30.448,34.69538879394531C30.208,34.675,29.888,34.865,29.438,35.22539138793945L29.448,35.525390625C29.208,35.655,28.768,36.105,28.748,36.375389099121094L28.508,36.19538879394531C28.308,36.885,28.218,36.525,27.918,37.375389099121094L28.218,37.20539093017578C27.848,37.635,27.518,37.765,27.238,38.375389099121094C26.938,39.225,27.058,39.335,26.808,40.19538879394531C26.808,39.465,26.808,38.605,27.028,38.025390625C28.098,34.065,32.748,30.465,37.528,30.705392837524414C38.498,30.645,39.708,30.805,39.948,30.6453914642334C40.688,30.865,41.588,31.125,42.658,31.6553897857666C42.728,31.615,42.448,31.745,42.898,32.01538848876953C43.258,32.175,43.648,32.305,43.998,32.51538848876953L44.028,32.61539077758789C44.638,32.725,45.578,34.045,46.048,34.465389251708984L45.868,34.465389251708984C46.678,35.325,47.218,36.865,47.598,37.72539138793945C47.348,37.495,47.628,38.235,47.658,38.7653923034668L47.378,38.275390625C47.538,38.905,47.308,38.875,47.408,39.525390625C47.378,39.295,47.308,39.025,47.248,39.065391540527344C47.168,39.785,47.468,39.905,47.248,40.57538986206055L47.448,40.525390625C47.108,41.465,47.168,41.655,46.628,42.66539001464844C46.618,43.025,46.848,43.065,46.628,43.59539031982422C46.468,43.695,46.438,43.575,46.038,44.235389709472656C46.068,44.305,46.258,44.105,46.408,43.965389251708984C45.698,45.265,44.188,46.715,42.568,47.145389556884766C43.308,46.735,42.178,47.105,42.238,46.965389251708984C41.748,47.145,41.238,47.295,40.708,47.395389556884766C41.138,47.275,42.188,47.005,42.858,46.5353889465332C42.428,46.505,43.158,45.935,42.198,46.245391845703125C41.858,46.465,42.548,46.295,41.948,46.585391998291016C41.658,46.585,41.368,46.695,40.998,46.76538848876953C41.018,46.665,41.408,46.545,41.308,46.465389251708984C40.808,46.565,40.588,46.735,40.548,46.79539108276367C40.468,46.765,40.628,46.675,40.308,46.67538833618164C39.568,46.715,39.878,46.885,39.848,46.965389251708984C39.478,46.875,39.058,46.555,38.428,46.715389251708984L38.988,46.51538848876953C38.458,46.465,38.358,46.625,37.708,46.38539123535156C38.308,46.565,38.808,46.545,38.558,46.375389099121094C37.738,46.465,37.108,45.725,36.578,45.79539108276367L36.868,45.585391998291016C36.038,45.015,36.418,45.575,35.808,45.18539047241211C36.038,45.325,35.888,45.115,36.168,45.29539108276367C36.158,45.175,35.638,44.745,35.338,44.35538864135742C34.108,42.815,33.938,40.965,34.608,39.20539093017578L34.608,39.19538879394531C34.648,39.205,34.698,39.195,34.778,39.07538986206055C35.928,37.565,36.908,36.675,39.188,36.965389251708984C39.358,37.215,40.308,37.275,40.638,37.805389404296875C41.348,38.125,41.998,39.085,42.018,40.11539077758789C42.078,41.165,41.458,42.055,40.878,42.50539016723633C41.628,41.685,41.858,40.365,41.308,39.22539138793945C40.778,38.075,39.508,37.385,38.238,37.465389251708984C38.308,37.525,38.258,37.565,38.418,37.58538818359375C35.948,37.555,34.138,40.245,35.048,42.18539047241211L34.998,42.215389251708984C35.218,42.995,35.388,42.895,35.748,43.405391693115234C35.658,43.365,35.448,43.065,35.448,43.245391845703125C35.508,43.495,36.238,44.275,36.578,44.66539001464844C36.958,44.835,36.808,44.565,37.268,44.815391540527344L37.418,45.11539077758789C37.898,45.285,38.168,45.465,38.738,45.465389251708984" transform="matrix(1,0,0,1,0,0)"></path><path d="M38.545,50.53639221191406L38.904,50.31596374511719C38.289,50.861,37.993,51.672,37.589,52.29344177246094L37.639,52.34576416015625C36.775,53.982,37.176,56.489,38.075,57.77055740356445C38.856,58.879,40.442,59.91,41.411,59.97340393066406C41.252,60.008,40.816,59.803,40.906,59.94758987426758C42.158,60.52,42.059,60.07,43.103,60.36172866821289C43.495,60.264,42.249,60.122,42.984,60.1081657409668C43.534,60.275,43.634,60.622,44.783,60.29230880737305C44.783,60.153,44.149,60.33,44.713,60.11338424682617C45.352,60.586,47.761,59.794,48.383,59.43760299682617L48.238,59.307960510253906C48.892,58.796,49.492,58.576,49.765,58.203399658203125C50.404,57.256,51.76,55.648,51.621,54.829200744628906L51.938,54.40020751953125L51.964,53.8954963684082L52.073,53.946834564208984C52.485,52.072,51.556,53.602,51.839,51.571746826171875C51.914,51.661,51.998,51.756,52.017,52.04387283325195C52.129,51.889,52.154,51.326,52.089,50.838565826416016L52.263,50.77732467651367C52.279,50.428,52.176,50.288,52.135,50.137969970703125C52.506,50.756,52.207,48.874,52.189,48.64481735229492L52.018,48.74203872680664C52.155,48.544,52.15,48.172,52.064,47.60235595703125L51.799,47.46101379394531C51.806,47.188,51.636,46.582,51.413,46.4297981262207L51.689,46.31195068359375C51.191,45.793,51.548,45.895,50.962,45.21099853515625L50.959,45.55580520629883C50.771,45.02,50.824,44.669,50.436,44.122100830078125C49.849,43.437,49.694,43.486,49.074,42.8397102355957C49.707,43.204,50.451,43.634,50.844,44.115234375C53.738,47.021,54.531,52.848,51.933,56.868499755859375C51.5,57.738,50.756,58.706,50.775,58.99428176879883C50.214,59.525,49.539,60.174,48.545,60.83620834350586C48.545,60.916,48.572,60.609,48.114,60.86405563354492C47.795,61.095,47.487,61.368,47.131,61.56668472290039L47.029,61.542667388916016C46.629,62.016,45.015,62.17,44.417,62.36703872680664L44.507,62.21115493774414C43.357,62.482,41.753,62.18,40.819,62.07938003540039C41.143,61.977,40.362,61.85,39.888,61.6113395690918L40.452,61.61384963989258C39.827,61.437,39.968,61.253,39.355,61.014835357666016C39.569,61.103,39.838,61.178,39.833,61.106266021728516C39.25,60.677,38.996,60.876,38.525,60.35126876831055L38.469,60.54947280883789C37.825,59.785,37.63,59.742,37.025,58.76933288574219C36.719,58.58,36.569,58.759,36.22,58.3043327331543C36.213,58.115,36.332,58.149,35.961,57.4733772277832C35.885,57.464,35.963,57.728,36.01,57.92880630493164C35.239,56.664,34.738,54.631,35.176,53.01327133178711C35.161,53.859,35.405,52.695,35.496,52.817481994628906C35.586,52.303,35.711,51.786,35.889,51.277462005615234C35.778,51.709,35.487,52.754,35.559,53.56941604614258C35.8,53.212,35.928,54.129,36.14,53.14284133911133C36.119,52.738,35.922,53.421,35.971,52.75633239746094C36.116,52.505,36.165,52.199,36.29,51.84360885620117C36.366,51.911,36.275,52.308,36.394,52.26207733154297C36.558,51.779,36.521,51.503,36.489,51.43889617919922C36.555,51.384,36.553,51.568,36.713,51.291053771972656C37.048,50.63,36.746,50.813,36.691,50.7476806640625C36.954,50.472,37.442,50.268,37.618,49.64292526245117L37.511,50.22789764404297C37.819,49.793,37.731,49.627,38.264,49.18438720703125C37.808,49.614,37.575,50.057,37.847,49.925506591796875C38.179,49.17,39.135,48.994,39.34,48.50077819824219L39.377,48.85692596435547C40.285,48.423,39.61,48.472,40.253,48.138938903808594C40.017,48.268,40.274,48.243,39.978,48.39570617675781C40.087,48.447,40.719,48.211,41.207,48.14690399169922C43.155,47.851,44.843,48.629,46.032,50.08970642089844L46.04,50.09470748901367C46.012,50.124,45.995,50.172,46.059,50.30193328857422C46.792,52.052,47.073,53.346,45.682,55.17610549926758C45.38,55.198,44.853,55.991,44.229,56.0118408203125C43.597,56.466,42.441,56.549,41.539,56.05195617675781C40.599,55.578,40.139,54.597,40.039,53.869686126708984C40.374,54.929,41.402,55.788,42.664,55.882076263427734C43.925,55.998,45.158,55.243,45.724,54.10337829589844C45.637,54.134,45.627,54.07,45.53,54.19926452636719C46.791,52.075,45.366,49.162,43.231,48.98075866699219L43.23,48.922454833984375C42.445,48.723,42.446,48.92,41.824,48.97697448730469C41.904,48.919,42.269,48.887,42.113,48.79716873168945C41.867,48.724,40.826,48.966,40.318,49.06577682495117C39.981,49.309,40.29,49.315,39.843,49.58833312988281L39.509,49.5682373046875C39.121,49.899,38.83,50.042,38.545,50.53639221191406" transform="matrix(1,0,0,1,0,0)"></path><path d="M34.25,47.834388732910156L34.262,48.25482177734375C34.097,47.449,33.542,46.788,33.207,46.12733840942383L33.136,46.14501953125C32.15,44.577,29.78,43.671,28.22,43.81022644042969C26.87,43.931,25.183,44.79,24.645,45.59737777709961C24.694,45.442,25.089,45.167,24.919,45.17319107055664C23.798,45.97,24.236,46.11,23.462,46.86905288696289C23.351,47.256,24.097,46.248,23.741,46.892616271972656C23.321,47.285,22.971,47.198,22.682,48.35847473144531C22.803,48.427,22.966,47.79,22.872,48.38739776611328C22.143,48.704,21.624,51.186,21.623,51.90317916870117L21.807,51.84281921386719C21.924,52.664,21.814,53.294,22,53.717384338378906C22.501,54.744,23.216,56.722,23.995,57.01158142089844L24.208,57.50057601928711L24.632,57.77528762817383L24.533,57.84394836425781C25.95,59.138,25.09,57.568,26.707,58.829036712646484C26.591,58.849,26.468,58.874,26.209,58.746910095214844C26.287,58.921,26.762,59.224,27.217,59.41221618652344L27.183,59.59346008300781C27.476,59.782,27.65,59.762,27.8,59.80281066894531C27.079,59.814,28.859,60.496,29.066,60.59596633911133L29.068,60.39874267578125C29.171,60.616,29.495,60.798,30.032,61.008426666259766L30.287,60.84976577758789C30.519,60.992,31.129,61.148,31.373,61.03098678588867L31.337,61.32883071899414C32.034,61.157,31.768,61.415,32.654,61.24978256225586L32.357,61.07497787475586C32.914,61.18,33.192,61.401,33.86,61.338680267333984C34.746,61.173,34.781,61.014,35.651,60.80107498168945C35.019,61.166,34.274,61.596,33.662,61.6955451965332C29.697,62.748,24.255,60.521,22.072,56.26227951049805C21.535,55.452,21.069,54.324,20.81,54.19649887084961C20.631,53.445,20.406,52.536,20.33,51.34457015991211C20.261,51.304,20.513,51.481,20.522,50.95672607421875C20.481,50.565,20.398,50.162,20.405,49.75409698486328L20.477,49.67811584472656C20.267,49.094,20.94,47.62,21.069,47.003746032714844L21.159,47.159629821777344C21.498,46.028,22.562,44.79,23.117,44.03140640258789C23.043,44.362,23.544,43.75,23.988,43.459442138671875L23.703,43.946929931640625C24.169,43.493,24.258,43.707,24.771,43.29595184326172C24.587,43.437,24.388,43.632,24.452,43.664512634277344C25.116,43.373,25.07,43.054,25.76,42.909515380859375L25.617,42.76131057739258C26.601,42.585,26.735,42.438,27.88,42.401451110839844C28.197,42.23,28.117,42.011,28.686,41.93645095825195C28.852,42.025,28.763,42.111,29.535,42.127403259277344C29.58,42.066,29.312,42.001,29.116,41.94197463989258C30.597,41.906,32.608,42.489,33.79,43.677513122558594C33.065,43.241,33.95,44.035,33.799,44.05330276489258C34.2,44.387,34.585,44.754,34.936,45.1633186340332C34.618,44.851,33.859,44.076,33.117,43.73136520385742C33.306,44.118,32.447,43.771,33.195,44.447940826416016C33.556,44.632,33.064,44.119,33.615,44.494449615478516C33.76,44.745,34,44.941,34.246,45.2271728515625C34.149,45.259,33.85,44.982,33.831,45.10870361328125C34.168,45.491,34.425,45.597,34.497,45.60188293457031C34.511,45.686,34.353,45.592,34.513,45.86973190307617C34.918,46.49,34.91,46.137,34.994,46.12310028076172C35.101,46.488,35.034,47.012,35.488,47.47785949707031L35.034,47.0928840637207C35.256,47.576,35.445,47.583,35.562,48.266395568847656C35.418,47.656,35.15,47.233,35.128,47.535274505615234C35.616,48.2,35.29,49.116,35.616,49.54000473022461L35.289,49.393856048583984C35.21,50.397,35.505,49.788,35.473,50.511844635009766C35.479,50.242,35.372,50.477,35.388,50.145076751708984C35.289,50.213,35.176,50.879,34.989,51.33387756347656C34.27,53.169,32.753,54.241,30.894,54.54107666015625L30.885,54.54607391357422C30.874,54.506,30.84,54.468,30.696,54.4588508605957C28.813,54.218,27.553,53.814,26.664,51.694679260253906C26.795,51.422,26.372,50.569,26.666,50.018943786621094C26.588,49.244,27.095,48.201,27.977,47.668827056884766C28.856,47.091,29.937,47.183,30.617,47.461097717285156C29.531,47.221,28.273,47.682,27.561,48.72870635986328C26.83,49.762,26.868,51.207,27.572,52.26740264892578C27.589,52.176,27.648,52.2,27.586,52.051517486572266C28.795,54.205,32.029,54.428,33.254,52.67002487182617L33.305,52.698326110839844C33.871,52.117,33.699,52.02,33.961,51.45380783081055C33.971,51.551,33.817,51.883,33.972,51.79361343383789C34.159,51.616,34.469,50.594,34.637,50.105003356933594C34.594,49.69,34.436,49.955,34.422,49.43244934082031L34.607,49.15254592895508C34.514,48.651,34.535,48.328,34.25,47.834388732910156" transform="matrix(1,0,0,1,0,0)"></path><path d="M22.155,22.14731216430664L22.513,21.926883697509766C21.898,22.473,21.603,23.284,21.198,23.904361724853516L21.248,23.956684112548828C20.384,25.594,20.785,28.1,21.684,29.381479263305664C22.465,30.49,24.052,31.522,25.02,31.584325790405273C24.861,31.62,24.425,31.414,24.515,31.55851173400879C25.767,32.131,25.668,31.682,26.713,31.9726505279541C27.104,31.875,25.858,31.733,26.593,31.719087600708008C27.143,31.887,27.244,32.233,28.392,31.903226852416992C28.392,31.765,27.758,31.942,28.322,31.724306106567383C28.962,32.197,31.37,31.406,31.992,31.048524856567383L31.847,30.918882369995117C32.501,30.407,33.101,30.188,33.374,29.81431770324707C34.014,28.867,35.369,27.26,35.23,26.440120697021484L35.547,26.01112937927246L35.573,25.50641632080078L35.682,25.557756423950195C36.094,23.683,35.165,25.213,35.448,23.182666778564453C35.523,23.273,35.607,23.367,35.626,23.654794692993164C35.738,23.5,35.763,22.937,35.698,22.449487686157227L35.872,22.388242721557617C35.888,22.04,35.785,21.899,35.744,21.748891830444336C36.115,22.367,35.816,20.486,35.798,20.2557373046875L35.627,20.352962493896484C35.764,20.155,35.76,19.783,35.673,19.213275909423828L35.408,19.071937561035156C35.415,18.799,35.246,18.193,35.022,18.040719985961914L35.298,17.92287254333496C34.8,17.405,35.157,17.507,34.571,16.821918487548828L34.568,17.166725158691406C34.381,16.632,34.433,16.281,34.045,15.733020782470703C33.459,15.048,33.303,15.097,32.683,14.450628280639648C33.316,14.816,34.061,15.246,34.453,15.726154327392578C37.347,18.633,38.14,24.46,35.542,28.479421615600586C35.109,29.35,34.366,30.318,34.384,30.60520362854004C33.824,31.136,33.148,31.786,32.154,32.4471321105957C32.154,32.528,32.182,32.221,31.723,32.474979400634766C31.404,32.707,31.097,32.98,30.74,33.17760467529297L30.638,33.153587341308594C30.238,33.627,28.625,33.781,28.026,33.97795867919922L28.116,33.82207107543945C26.966,34.094,25.362,33.791,24.428,33.6902961730957C24.752,33.589,23.971,33.462,23.497,33.22225570678711L24.061,33.224769592285156C23.436,33.049,23.577,32.864,22.964,32.62575149536133C23.178,32.715,23.447,32.789,23.442,32.717185974121094C22.859,32.288,22.605,32.488,22.134,31.962190628051758L22.078,32.16039276123047C21.434,31.396,21.239,31.353,20.634,30.3802547454834C20.328,30.192,20.178,30.371,19.829,29.915254592895508C19.823,29.727,19.941,29.761,19.57,29.084299087524414C19.494,29.076,19.572,29.34,19.619,29.53972816467285C18.848,28.275,18.347,26.242,18.785,24.624189376831055C18.77,25.47,19.014,24.307,19.105,24.428401947021484C19.195,23.914,19.32,23.398,19.498,22.888383865356445C19.387,23.321,19.096,24.365,19.168,25.18033790588379C19.409,24.823,19.538,25.74,19.749,24.753761291503906C19.729,24.35,19.531,25.032,19.58,24.36725425720215C19.725,24.116,19.774,23.81,19.899,23.454530715942383C19.975,23.522,19.884,23.92,20.003,23.87299919128418C20.167,23.39,20.13,23.115,20.098,23.049819946289062C20.164,22.996,20.162,23.179,20.322,22.901973724365234C20.657,22.241,20.355,22.425,20.3,22.358600616455078C20.564,22.083,21.051,21.88,21.227,21.25384521484375L21.12,21.83881950378418C21.429,21.405,21.34,21.238,21.873,20.795307159423828C21.417,21.225,21.184,21.668,21.456,21.536428451538086C21.789,20.782,22.744,20.606,22.949,20.111696243286133L22.986,20.467844009399414C23.894,20.034,23.219,20.083,23.862,19.749858856201172C23.626,19.879,23.883,19.854,23.587,20.00662612915039C23.696,20.058,24.328,19.823,24.816,19.75782585144043C26.765,19.463,28.452,20.241,29.641,21.70062828063965L29.65,21.70562744140625C29.621,21.736,29.605,21.784,29.668,21.912851333618164C30.401,23.664,30.682,24.958,29.291,26.787025451660156C28.989,26.809,28.462,27.602,27.838,27.62276268005371C27.206,28.078,26.05,28.161,25.148,27.66287612915039C24.209,27.19,23.748,26.208,23.648,25.480607986450195C23.983,26.54,25.011,27.4,26.274,27.492998123168945C27.535,27.609,28.767,26.854,29.333,25.71430015563965C29.246,25.745,29.236,25.682,29.139,25.810184478759766C30.4,23.686,28.975,20.774,26.84,20.591678619384766L26.839,20.533376693725586C26.054,20.334,26.055,20.531,25.434,20.5878963470459C25.513,20.53,25.878,20.498,25.722,20.40808868408203C25.476,20.335,24.435,20.577,23.927,20.67669677734375C23.59,20.921,23.899,20.926,23.452,21.199254989624023L23.118,21.17915916442871C22.731,21.51,22.44,21.654,22.155,22.14731216430664" transform="matrix(1,0,0,1,0,0)"></path><path d="M17.859,19.44466781616211L17.871,19.865785598754883C17.706,19.061,17.152,18.399,16.816,17.738224029541016L16.745,17.75536346435547C15.76,16.189,13.389,15.283,11.829,15.420553207397461C10.479,15.543,8.793,16.401,8.254,17.208192825317383C8.303,17.053,8.699,16.778,8.529,16.783756256103516C7.407,17.582,7.846,17.721,7.071,18.479345321655273C6.96,18.868,7.706,17.86,7.351,18.503068923950195C6.931,18.896,6.58,18.809,6.292,19.968976974487305C6.412,20.039,6.576,19.401,6.481,19.99781608581543C5.752,20.315,5.234,22.797,5.232,23.514022827148438L5.417,23.45326805114746C5.533,24.276,5.423,24.905,5.61,25.327972412109375C6.11,26.355,6.825,28.333,7.604,28.622413635253906L7.817,29.111440658569336L8.241,29.38631248474121L8.142,29.45503807067871C9.559,30.749,8.699,29.18,10.316,30.439931869506836C10.201,30.46,10.076,30.486,9.818,30.358022689819336C9.896,30.532,10.371,30.836,10.826,31.023027420043945L10.792,31.2043399810791C11.086,31.393,11.259,31.374,11.409,31.413164138793945C10.689,31.425,12.468,32.108,12.676,32.20650863647461L12.677,32.009803771972656C12.78,32.228,13.104,32.409,13.641,32.619483947753906L13.896,32.46065902709961C14.128,32.603,14.738,32.759,14.982,32.6419792175293L14.946,32.93992614746094C15.644,32.768,15.377,33.026,16.263,32.860801696777344L15.966,32.6858024597168C16.524,32.791,16.801,33.012,17.469,32.94972229003906C18.355,32.784,18.391,32.625,19.26,32.41139221191406C18.628,32.777,17.884,33.207,17.271,33.30649185180664C13.307,34.36,7.864,32.133,5.682,27.872962951660156C5.145,27.063,4.679,25.935,4.42,25.807214736938477C4.24,25.056,4.016,24.147,3.94,22.955013275146484C3.87,22.915,4.123,23.092,4.131,22.567832946777344C4.09,22.176,4.008,21.773,4.014,21.365217208862305L4.086,21.28889274597168C3.876,20.706,4.549,19.231,4.678,18.614648818969727L4.768,18.770532608032227C5.108,17.639,6.172,16.401,6.726,15.642518997192383C6.652,15.974,7.153,15.361,7.597,15.070268630981445L7.313,15.557449340820312C7.778,15.105,7.867,15.319,8.38,14.906929016113281C8.196,15.048,7.997,15.244,8.062,15.27517318725586C8.725,14.985,8.679,14.665,9.369,14.519908905029297L9.226,14.372310638427734C10.21,14.197,10.344,14.049,11.489,14.011838912963867C11.806,13.842,11.726,13.622,12.295,13.547187805175781C12.462,13.636,12.373,13.722,13.144,13.738367080688477C13.19,13.677,12.922,13.613,12.725,13.55308723449707C14.206,13.518,16.217,14.1,17.399,15.288591384887695C16.674,14.853,17.56,15.646,17.408,15.663612365722656C17.809,15.999,18.194,16.366,18.546,16.773971557617188C18.227,16.462,17.468,15.688,16.726,15.342205047607422C16.915,15.73,16.056,15.382,16.805,16.058652877807617C17.166,16.243,16.673,15.731,17.224,16.105548858642578C17.369,16.357,17.609,16.552,17.855,16.838171005249023C17.758,16.87,17.46,16.593,17.44,16.719003677368164C17.777,17.103,18.034,17.209,18.106,17.212867736816406C18.12,17.298,17.962,17.204,18.122,17.48077964782715C18.527,18.101,18.519,17.748,18.603,17.733413696289062C18.71,18.099,18.643,18.624,19.097,19.088598251342773L18.644,18.703445434570312C18.866,19.188,19.054,19.194,19.171,19.8773193359375C19.027,19.268,18.759,18.844,18.737,19.145626068115234C19.226,19.811,18.9,20.727,19.225,21.15096664428711L18.898,21.004934310913086C18.819,22.008,19.115,21.399,19.082,22.122568130493164C19.088,21.854,18.981,22.089,18.997,21.756027221679688C18.898,21.825,18.786,22.49,18.598,22.944772720336914C17.88,24.78,16.362,25.853,14.503,26.15194320678711L14.494,26.1563720703125C14.483,26.118,14.45,26.079,14.305,26.0692138671875C12.423,25.829,11.162,25.425,10.273,23.305635452270508C10.405,23.033,9.981,22.18,10.276,21.62943458557129C10.198,20.855,10.704,19.812,11.586,19.279767990112305C12.466,18.703,13.546,18.795,14.226,19.071863174438477C13.141,18.832,11.883,19.293,11.17,20.338985443115234C10.439,21.373,10.477,22.818,11.181,23.878372192382812C11.198,23.788,11.258,23.811,11.195,23.66242218017578C12.404,25.817,15.639,26.039,16.864,24.28067970275879L16.915,24.3089656829834C17.48,23.729,17.309,23.631,17.57,23.06407356262207C17.58,23.162,17.426,23.494,17.582,23.404258728027344C17.768,23.228,18.079,22.205,18.246,21.715438842773438C18.204,21.302,18.044,21.567,18.031,21.04279899597168L18.216,20.763593673706055C18.123,20.262,18.145,19.939,17.859,19.44466781616211" transform="matrix(1,0,0,1,0,0)"></path><path d="M22.347,17.076091766357422L21.977,16.876266479492188C22.757,17.136,23.607,16.986,24.347,17.026351928710938L24.367,16.956024169921875C26.218,16.886,28.187,15.287,28.847,13.866039276123047C29.417,12.637,29.517,10.746,29.087,9.876421928405762C29.197,9.997,29.237,10.476,29.317,10.3258056640625C29.187,8.957,28.847,9.266,28.577,8.216076850891113C28.297,7.927,28.797,9.077,28.417,8.445916175842285C28.287,7.886,28.537,7.626,27.677,6.795866012573242C27.557,6.866,28.027,7.326,27.557,6.945948600769043C27.647,6.156,25.757,4.466,25.137,4.106391906738281L25.097,4.2959208488464355C24.327,3.987,23.837,3.576,23.377,3.5257811546325684C22.237,3.446,20.167,3.077,19.527,3.606403350830078L18.997,3.546370506286621L18.547,3.776209831237793L18.537,3.6561427116394043C16.707,4.236,18.497,4.277,16.597,5.046338081359863C16.637,4.936,16.677,4.817,16.917,4.656120300292969C16.727,4.637,16.227,4.897,15.837,5.1964216232299805L15.697,5.076354026794434C15.387,5.236,15.317,5.397,15.207,5.506015777587891C15.558,4.876,14.077,6.077,13.887,6.205826759338379L14.057,6.306170463562012C13.817,6.287,13.497,6.476,13.047,6.836175918579102L13.057,7.136343002319336C12.817,7.266,12.377,7.716,12.357,7.986238479614258L12.117,7.806139945983887C11.917,8.496,11.827,8.136,11.527,8.98621654510498L11.827,8.816410064697266C11.457,9.246,11.127,9.377,10.847,9.98619556427002C10.547,10.836,10.667,10.946,10.417,11.806049346923828C10.417,11.076,10.417,10.216,10.637,9.636290550231934C11.708,5.676,16.357,2.077,21.137,2.315687656402588C22.107,2.256,23.317,2.416,23.557,2.2556533813476562C24.297,2.476,25.197,2.736,26.267,3.265925884246826C26.336,3.226,26.057,3.356,26.507,3.6261258125305176C26.866,3.787,27.257,3.916,27.607,4.126115322113037L27.637,4.226458549499512C28.247,4.337,29.187,5.657,29.657,6.07633113861084L29.477,6.076332092285156C30.287,6.936,30.827,8.476,31.207,9.336121559143066C30.957,9.107,31.237,9.847,31.267,10.376411437988281L30.987,9.885849952697754C31.147,10.516,30.917,10.487,31.017,11.136255264282227C30.986,10.906,30.917,10.637,30.857,10.675711631774902C30.777,11.397,31.077,11.516,30.857,12.185973167419434L31.057,12.13623332977295C30.717,13.077,30.778,13.266,30.237,14.275978088378906C30.227,14.636,30.456,14.676,30.237,15.20649528503418C30.077,15.306,30.047,15.186,29.647,15.846273422241211C29.677,15.916,29.868,15.716,30.017,15.57612419128418C29.307,16.877,27.797,18.327,26.177,18.75615692138672C26.917,18.347,25.787,18.716,25.847,18.57605743408203C25.357,18.757,24.847,18.906,24.317,19.005718231201172C24.746,18.887,25.797,18.617,26.467,18.14639663696289C26.037,18.117,26.767,17.546,25.807,17.85565757751465C25.467,18.076,26.157,17.907,25.557,18.196134567260742C25.267,18.196,24.977,18.306,24.607,18.37623405456543C24.628,18.276,25.017,18.156,24.917,18.076068878173828C24.417,18.177,24.197,18.346,24.157,18.406251907348633C24.077,18.376,24.237,18.287,23.917,18.28618621826172C23.177,18.327,23.487,18.496,23.457,18.57605743408203C23.087,18.486,22.667,18.166,22.037,18.326494216918945L22.597,18.12580680847168C22.067,18.077,21.967,18.237,21.317,17.996313095092773C21.917,18.177,22.418,18.156,22.167,17.986019134521484C21.347,18.076,20.717,17.336,20.187,17.406272888183594L20.477,17.196157455444336C19.647,16.626,20.027,17.186,19.417,16.796512603759766C19.647,16.937,19.497,16.727,19.777,16.90628433227539C19.767,16.787,19.247,16.356,18.947,15.966341018676758C17.717,14.426,17.547,12.576,18.217,10.816366195678711L18.217,10.806073188781738C18.257,10.817,18.307,10.806,18.387,10.686005592346191C19.537,9.176,20.517,8.287,22.797,8.576276779174805C22.967,8.826,23.917,8.886,24.247,9.415876388549805C24.957,9.736,25.607,10.696,25.627,11.72629451751709C25.687,12.776,25.067,13.667,24.487,14.116466522216797C25.237,13.296,25.467,11.976,24.917,10.836089134216309C24.387,9.686,23.117,8.997,21.847,9.076265335083008C21.917,9.137,21.867,9.176,22.027,9.196332931518555C19.557,9.167,17.747,11.856,18.657,13.795711517333984L18.607,13.825729370117188C18.827,14.607,18.997,14.506,19.357,15.016101837158203C19.268,14.976,19.057,14.677,19.057,14.855724334716797C19.117,15.107,19.847,15.886,20.187,16.27593421936035C20.568,16.446,20.417,16.177,20.877,16.42601776123047L21.027,16.726184844970703C21.507,16.896,21.777,17.076,22.347,17.076091766357422" transform="matrix(1,0,0,1,0,0)"></path><path d="M50.64,19.44485855102539L50.652,19.86528778076172C50.487,19.06,49.932,18.399,49.597,17.737808227539062L49.526,17.7554874420166C48.541,16.189,46.17,15.283,44.61,15.420692443847656C43.26,15.542,41.573,16.401,41.035,17.20784568786621C41.084,17.053,41.479,16.778,41.31,16.783660888671875C40.188,17.581,40.626,17.721,39.852,18.47951889038086C39.741,18.867,40.487,17.859,40.131,18.503084182739258C39.711,18.896,39.361,18.809,39.072,19.968942642211914C39.193,20.038,39.356,19.401,39.262,19.997865676879883C38.533,20.315,38.014,22.797,38.013,23.513647079467773L38.197,23.453289031982422C38.314,24.275,38.204,24.905,38.391,25.327852249145508C38.891,26.355,39.606,28.333,40.385,28.622051239013672L40.598,29.11104393005371L41.022,29.38575553894043L40.923,29.454416275024414C42.34,30.749,41.48,29.179,43.097,30.439504623413086C42.982,30.46,42.858,30.485,42.599,30.35737419128418C42.677,30.532,43.152,30.835,43.607,31.02268409729004L43.573,31.203927993774414C43.866,31.393,44.04,31.373,44.19,31.413278579711914C43.47,31.425,45.249,32.107,45.456,32.2064323425293L45.458,32.00920867919922C45.561,32.227,45.885,32.409,46.422,32.618892669677734L46.677,32.46023178100586C46.909,32.603,47.519,32.759,47.763,32.641448974609375L47.727,32.93929672241211C48.425,32.768,48.158,33.026,49.044,32.860252380371094L48.747,32.68544387817383C49.304,32.791,49.582,33.012,50.25,32.94915008544922C51.136,32.784,51.171,32.625,52.041,32.41154098510742C51.409,32.777,50.664,33.207,50.052,33.30601501464844C46.087,34.36,40.645,32.133,38.463,27.87274932861328C37.926,27.063,37.459,25.935,37.201,25.80696678161621C37.021,25.056,36.796,24.147,36.72,22.955039978027344C36.651,22.915,36.903,23.092,36.912,22.56719207763672C36.871,22.176,36.788,21.773,36.795,21.364564895629883L36.867,21.288583755493164C36.657,20.706,37.33,19.231,37.459,18.614212036132812L37.549,18.770097732543945C37.889,17.639,38.952,16.401,39.507,15.64187240600586C39.433,15.974,39.934,15.361,40.378,15.06991195678711L40.093,15.557397842407227C40.559,15.104,40.648,15.318,41.161,14.906417846679688C40.977,15.048,40.778,15.243,40.843,15.274982452392578C41.506,14.985,41.46,14.665,42.15,14.519981384277344L42.007,14.371776580810547C42.991,14.196,43.126,14.05,44.27,14.011917114257812C44.587,13.841,44.507,13.622,45.076,13.546916961669922C45.242,13.636,45.153,13.722,45.925,13.737871170043945C45.97,13.677,45.702,13.613,45.506,13.552444458007812C46.987,13.518,48.998,14.1,50.18,15.287981033325195C49.455,14.852,50.34,15.646,50.189,15.663768768310547C50.59,15.998,50.975,16.365,51.327,16.773786544799805C51.008,16.462,50.249,15.687,49.507,15.341833114624023C49.696,15.729,48.837,15.382,49.586,16.058408737182617C49.946,16.243,49.454,15.731,50.005,16.104915618896484C50.15,16.356,50.39,16.552,50.636,16.8376407623291C50.539,16.871,50.24,16.593,50.221,16.71917152404785C50.558,17.102,50.815,17.208,50.887,17.212350845336914C50.901,17.297,50.743,17.203,50.903,17.48019790649414C51.308,18.101,51.3,17.748,51.384,17.733570098876953C51.491,18.099,51.424,18.623,51.878,19.08832550048828L51.425,18.703351974487305C51.646,19.188,51.835,19.194,51.952,19.876863479614258C51.808,19.267,51.54,18.844,51.518,19.145742416381836C52.006,19.811,51.68,20.727,52.006,21.150474548339844L51.679,21.00432586669922C51.6,22.008,51.895,21.399,51.863,22.122312545776367C51.869,21.853,51.762,22.088,51.778,21.755544662475586C51.679,21.824,51.567,22.49,51.379,22.944345474243164C50.66,24.78,49.143,25.852,47.284,26.15154266357422L47.275,26.156543731689453C47.264,26.117,47.23,26.079,47.086,26.069318771362305C45.203,25.829,43.943,25.425,43.054,23.305147171020508C43.185,23.033,42.762,22.18,43.056,21.629409790039062C42.978,20.855,43.485,19.812,44.367,19.279294967651367C45.246,18.703,46.327,18.795,47.007,19.071563720703125C45.921,18.832,44.663,19.293,43.951,20.33917236328125C43.22,21.373,43.258,22.818,43.962,23.877872467041016C43.979,23.787,44.038,23.811,43.976,23.6619873046875C45.185,25.816,48.419,26.039,49.645,24.28049087524414L49.696,24.308794021606445C50.261,23.729,50.089,23.631,50.351,23.064273834228516C50.361,23.162,50.207,23.494,50.363,23.404081344604492C50.549,23.227,50.859,22.205,51.027,21.715473175048828C50.984,21.302,50.826,21.567,50.812,21.04291534423828L50.997,20.763011932373047C50.904,20.263,50.925,19.939,50.64,19.44485855102539" transform="matrix(1,0,0,1,0,0)"></path><path d="M55.128,17.076499938964844L54.758,16.875812530517578C55.538,17.136,56.388,16.987,57.128,17.025894165039062L57.148,16.95643424987793C58.998,16.887,60.968,15.286,61.628,13.866449356079102C62.198,12.636,62.298,10.747,61.868,9.87596607208252C61.978,9.996,62.018,10.476,62.098,10.326214790344238C61.968,8.956,61.628,9.267,61.358,8.216486930847168C61.078,7.926,61.578,9.076,61.198,8.44632625579834C61.068,7.887,61.318,7.627,60.458,6.796276092529297C60.338,6.866,60.808,7.327,60.338,6.946358680725098C60.428,6.157,58.538,4.466,57.918,4.1059370040893555L57.878,4.296331405639648C57.108,3.986,56.618,3.576,56.158,3.5261898040771484C55.018,3.447,52.948,3.076,52.308,3.6059470176696777L51.778,3.545912265777588L51.328,3.7757534980773926L51.318,3.6556859016418457C49.488,4.236,51.278,4.276,49.378,5.045881271362305C49.418,4.936,49.458,4.816,49.698,4.655663967132568C49.508,4.636,49.008,4.896,48.618,5.195964813232422L48.478,5.075898170471191C48.168,5.237,48.098,5.396,47.988,5.5064239501953125C48.338,4.876,46.858,6.076,46.668,6.206235885620117L46.838,6.305715560913086C46.598,6.286,46.278,6.476,45.828,6.835719108581543L45.838,7.135886192321777C45.598,7.266,45.158,7.717,45.138,7.985781669616699L44.898,7.805680274963379C44.698,8.496,44.607,8.136,44.308,8.985758781433105L44.608,8.81595230102539C44.238,9.247,43.908,9.376,43.628,9.985738754272461C43.328,10.837,43.448,10.946,43.198,11.8064603805542C43.197,11.076,43.198,10.217,43.418,9.635831832885742C44.488,5.677,49.137,2.076,53.918,2.316096305847168C54.888,2.256,56.098,2.417,56.338,2.256063461303711C57.078,2.477,57.978,2.737,59.048,3.266335964202881C59.118,3.226,58.838,3.357,59.288,3.625669002532959C59.648,3.787,60.038,3.917,60.388,4.12565803527832L60.418,4.226004123687744C61.028,4.336,61.969,5.657,62.438,6.075876235961914L62.258,6.075876235961914C63.068,6.936,63.608,8.477,63.988,9.335664749145508C63.737,9.106,64.018,9.846,64.048,10.375954627990723L63.768,9.886260032653809C63.928,10.516,63.698,10.486,63.798,11.135799407958984C63.767,10.906,63.698,10.636,63.638,10.676121711730957C63.558,11.396,63.857,11.516,63.638,12.186382293701172L63.838,12.135777473449707C63.498,13.076,63.558,13.266,63.018,14.276388168334961C63.007,14.636,63.238,14.677,63.018,15.206039428710938C62.858,15.307,62.828,15.187,62.428,15.845815658569336C62.458,15.916,62.648,15.717,62.798,15.575666427612305C62.088,16.876,60.578,18.326,58.958,18.755699157714844C59.698,18.346,58.568,18.717,58.628,18.576467514038086C58.138,18.756,57.628,18.906,57.098,19.006128311157227C57.528,18.887,58.578,18.616,59.248,18.145938873291016C58.818,18.116,59.548,17.547,58.588,17.856067657470703C58.248,18.077,58.938,17.906,58.338,18.1956787109375C58.048,18.196,57.758,18.306,57.388,18.37578010559082C57.408,18.276,57.798,18.157,57.698,18.076478958129883C57.198,18.176,56.978,18.346,56.938,18.40579605102539C56.858,18.376,57.018,18.286,56.698,18.285728454589844C55.958,18.326,56.268,18.496,56.238,18.576467514038086C55.868,18.487,55.448,18.166,54.818,18.326038360595703L55.378,18.126216888427734C54.848,18.077,54.748,18.236,54.098,17.9958553314209C54.698,18.176,55.198,18.156,54.948,17.986427307128906C54.128,18.077,53.498,17.337,52.968,17.40581703186035L53.258,17.195701599121094C52.428,16.626,52.808,17.186,52.198,16.79605484008789C52.428,16.936,52.278,16.726,52.558,16.905826568603516C52.548,16.786,52.028,16.356,51.728,15.965883255004883C50.498,14.427,50.328,12.576,50.998,10.815910339355469L50.998,10.806482315063477C51.038,10.816,51.088,10.807,51.168,10.68641471862793C52.318,9.177,53.298,8.286,55.578,8.575820922851562C55.748,8.826,56.698,8.886,57.028,9.416287422180176C57.738,9.737,58.388,10.696,58.408,11.725838661193848C58.468,12.777,57.848,13.666,57.268,14.116010665893555C58.018,13.296,58.248,11.977,57.698,10.836499214172363C57.168,9.687,55.898,8.996,54.628,9.075810432434082C54.698,9.136,54.648,9.177,54.808,9.195876121520996C52.338,9.166,50.528,11.857,51.438,13.796123504638672L51.388,13.826139450073242C51.608,14.606,51.778,14.506,52.138,15.016511917114258C52.048,14.976,51.838,14.676,51.838,14.856134414672852C51.898,15.106,52.628,15.886,52.968,16.276344299316406C53.348,16.447,53.198,16.176,53.658,16.426427841186523L53.808,16.72572898864746C54.289,16.896,54.558,17.077,55.128,17.076499938964844" transform="matrix(1,0,0,1,0,0)"></path><path d="M54.936,22.147079467773438L55.294,21.92647361755371C54.679,22.472,54.384,23.283,53.979,23.90386962890625L54.03,23.956518173217773C53.165,25.594,53.565,28.1,54.466,29.381296157836914C55.246,30.49,56.833,31.522,57.801,31.58376121520996C57.642,31.619,57.206,31.414,57.297,31.558561325073242C58.547,32.131,58.45,31.682,59.494,31.97243309020996C59.885,31.875,58.639,31.733,59.375,31.719030380249023C59.925,31.887,60.024,32.233,61.174,31.90321922302246C61.173,31.764,60.54,31.942,61.104,31.724214553833008C61.743,32.197,64.152,31.406,64.773,31.04798698425293L64.629,30.918821334838867C65.282,30.407,65.882,30.187,66.156,29.814393997192383C66.794,28.867,68.15,27.259,68.011,26.4395751953125L68.328,26.010616302490234L68.354,25.506065368652344L68.463,25.557470321655273C68.875,23.683,67.946,25.213,68.229,23.182188034057617C68.304,23.273,68.388,23.367,68.407,23.654531478881836C68.519,23.5,68.544,22.937,68.479,22.448925018310547L68.653,22.38774871826172C68.67,22.04,68.566,21.899,68.526,21.748733520507812C68.896,22.368,68.597,20.485,68.58,20.255767822265625L68.408,20.35264778137207C68.545,20.155,68.54,19.783,68.454,19.21295738220215L68.189,19.07145118713379C68.196,18.799,68.026,18.193,67.803,18.04033851623535L68.079,17.92259407043457C67.582,17.405,67.938,17.506,67.352,16.82155990600586L67.349,17.16617202758789C67.162,16.631,67.214,16.28,66.826,15.732683181762695C66.24,15.048,66.084,15.097,65.465,14.450437545776367C66.097,14.815,66.842,15.246,67.234,15.725725173950195C70.128,18.633,70.92,24.46,68.324,28.47959327697754C67.891,29.35,67.147,30.317,67.166,30.605405807495117C66.604,31.136,65.93,31.786,64.936,32.44706344604492C64.935,32.527,64.963,32.22,64.504,32.474708557128906C64.185,32.706,63.878,32.979,63.521,33.17734909057617L63.419,33.152984619140625C63.018,33.627,61.405,33.781,60.807,33.977481842041016L60.897,33.821598052978516C59.748,34.094,58.143,33.791,57.209,33.690032958984375C57.532,33.589,56.752,33.461,56.278,33.22170639038086L56.843,33.22477722167969C56.217,33.048,56.358,32.864,55.745,32.6253547668457C55.959,32.714,56.228,32.789,56.224,32.71733474731445C55.639,32.288,55.386,32.487,54.916,31.962072372436523L54.859,32.16001510620117C54.214,31.396,54.02,31.353,53.416,30.3801326751709C53.109,30.191,52.959,30.37,52.61,29.91461753845215C52.604,29.727,52.723,29.761,52.351,29.08388328552246C52.275,29.076,52.353,29.34,52.4,29.539461135864258C51.628,28.275,51.128,26.242,51.566,24.623891830444336C51.551,25.47,51.796,24.307,51.887,24.42820167541504C51.975,23.914,52.101,23.397,52.28,22.88852310180664C52.168,23.32,51.877,24.365,51.949,25.179798126220703C52.19,24.823,52.319,25.74,52.531,24.75396156311035C52.51,24.349,52.311,25.032,52.361,24.36697769165039C52.506,24.116,52.555,23.81,52.68,23.454153060913086C52.756,23.522,52.666,23.92,52.785,23.872787475585938C52.948,23.39,52.911,23.114,52.879,23.04942512512207C52.945,22.995,52.943,23.179,53.103,22.901643753051758C53.438,22.241,53.136,22.424,53.082,22.358402252197266C53.345,22.083,53.832,21.879,54.008,21.25320816040039L53.902,21.838869094848633C54.209,21.405,54.121,21.238,54.654,20.794851303100586C54.198,21.225,53.965,21.668,54.238,21.536266326904297C54.57,20.781,55.526,20.606,55.73,20.111282348632812L55.767,20.467546463012695C56.675,20.034,56,20.083,56.643,19.749202728271484C56.407,19.879,56.664,19.854,56.368,20.006200790405273C56.476,20.058,57.11,19.823,57.597,19.757343292236328C59.546,19.462,61.233,20.24,62.422,21.700119018554688L62.431,21.705413818359375C62.402,21.735,62.386,21.783,62.45,21.912704467773438C63.183,23.664,63.463,24.957,62.072,26.786605834960938C61.77,26.81,61.243,27.602,60.62,27.62274169921875C59.988,28.078,58.831,28.16,57.929,27.662439346313477C56.989,27.19,56.528,26.208,56.429,25.479997634887695C56.764,26.541,57.793,27.4,59.055,27.492767333984375C60.315,27.609,61.548,26.854,62.114,25.713891983032227C62.026,25.745,62.018,25.682,61.92,25.809709548950195C63.181,23.686,61.757,20.774,59.622,20.591825485229492L59.621,20.533506393432617C58.834,20.334,58.836,20.531,58.215,20.5876522064209C58.294,20.53,58.659,20.498,58.504,20.408222198486328C58.256,20.335,57.216,20.578,56.709,20.67662239074707C56.371,20.921,56.68,20.926,56.234,21.199094772338867L55.899,21.178831100463867C55.511,21.51,55.221,21.653,54.936,22.147079467773438" transform="matrix(1,0,0,1,0,0)"></path></g></symbol></defs><rect width="100%" height="100%" id="BgenPttrnRctLayer1" fill="url(#BgenPttrnLayer1)"></rect><rect width="100%" height="100%" id="BgenPttrnRctLayer2" fill="url(#BgenPttrnLayer2)"></rect></svg>